<svg xmlns="http://www.w3.org/2000/svg" width="1200" height="675" viewBox="0 0 1200 675" role="img" aria-labelledby="title desc">
  <title id="title">The DevX growth loop</title>
  <desc id="desc">A continuous loop connecting developer friction, a shipped experience, distribution, and measured outcomes.</desc>
  <rect width="1200" height="675" rx="32" fill="#f7f3eb"/>
  <path d="M230 338C230 187 395 112 600 112s370 75 370 226-165 225-370 225-370-74-370-225Z" fill="none" stroke="#b9afa0" stroke-width="3" stroke-dasharray="8 12"/>
  <g font-family="-apple-system,BlinkMacSystemFont,'Segoe UI',sans-serif" text-anchor="middle">
    <g transform="translate(230 338)">
      <circle r="86" fill="#fffdf9" stroke="#1769aa" stroke-width="4"/>
      <path d="M-28-8h56M-28 12h38M-28-28h43" stroke="#1769aa" stroke-width="8" stroke-linecap="round"/>
      <text y="124" fill="#2c2925" font-size="25" font-weight="700">Find friction</text>
    </g>
    <g transform="translate(505 152)">
      <circle r="86" fill="#fffdf9" stroke="#1769aa" stroke-width="4"/>
      <path d="m-32 8 22 22 46-58" fill="none" stroke="#1769aa" stroke-width="10" stroke-linecap="round" stroke-linejoin="round"/>
      <text y="124" fill="#2c2925" font-size="25" font-weight="700">Ship</text>
    </g>
    <g transform="translate(830 220)">
      <circle r="86" fill="#fffdf9" stroke="#1769aa" stroke-width="4"/>
      <circle cx="-29" r="11" fill="#1769aa"/><circle cx="29" cy="-26" r="11" fill="#1769aa"/><circle cx="35" cy="33" r="11" fill="#1769aa"/>
      <path d="m-19-5 38-17M-18 7l42 21" stroke="#1769aa" stroke-width="7"/>
      <text y="124" fill="#2c2925" font-size="25" font-weight="700">Distribute</text>
    </g>
    <g transform="translate(735 500)">
      <circle r="86" fill="#fffdf9" stroke="#1769aa" stroke-width="4"/>
      <path d="M-38 33V6M0 33v-67M38 33v-43" stroke="#1769aa" stroke-width="12" stroke-linecap="round"/>
      <text y="124" fill="#2c2925" font-size="25" font-weight="700">Measure</text>
    </g>
  </g>
  <g fill="#1769aa">
    <path d="m360 199 24-5-8 23Z"/><path d="m748 130 23 9-20 14Z"/><path d="m933 381-8 23-15-20Z"/><path d="m448 553-23-8 19-15Z"/>
  </g>
</svg>
